<svg xmlns="http://www.w3.org/2000/svg" width="130" height="50" viewBox="0 0 130 50" fill="none">
  <path d="M0 9L33 0H130V41H33L0 50V9Z" fill="#ED1C24"/>
  <path d="M80.4014 14C81.7895 14 83.0416 14.3225 84.1562 14.9678C85.2709 15.6131 86.1506 16.4937 86.7959 17.6084C87.4602 18.7034 87.7939 19.935 87.7939 21.3037C87.7939 22.6726 87.4603 23.9146 86.7959 25.0293C86.1506 26.1438 85.2708 27.0334 84.1562 27.6982C83.0416 28.3436 81.7896 28.667 80.4014 28.667C79.0323 28.667 77.7904 28.3435 76.6758 27.6982C75.5614 27.0334 74.6716 26.1438 74.0068 25.0293C73.3615 23.9146 73.0391 22.6726 73.0391 21.3037C73.0391 19.935 73.3617 18.7033 74.0068 17.6084C74.6717 16.5134 75.5612 15.6424 76.6758 14.9971C77.7904 14.3322 79.0323 14 80.4014 14ZM101.487 14C102.582 14 103.599 14.2153 104.538 14.6455C105.496 15.0561 106.308 15.6524 106.973 16.4346L104.861 18.5762C104.451 18.0873 103.952 17.7249 103.365 17.4902C102.798 17.236 102.172 17.1094 101.487 17.1094C100.686 17.1094 99.9721 17.2955 99.3467 17.667C98.7402 18.019 98.2612 18.508 97.9092 19.1338C97.5771 19.7594 97.4102 20.4924 97.4102 21.333C97.4102 22.1543 97.577 22.8879 97.9092 23.5332C98.2612 24.159 98.7402 24.6577 99.3467 25.0293C99.9721 25.3811 100.686 25.5576 101.487 25.5576C102.172 25.5576 102.798 25.4397 103.365 25.2051C103.952 24.9508 104.451 24.5796 104.861 24.0908L106.973 26.2324C106.308 27.0145 105.496 27.6206 104.538 28.0508C103.599 28.4614 102.582 28.667 101.487 28.667C100.099 28.6669 98.8384 28.3435 97.7041 27.6982C96.5894 27.0529 95.7088 26.1733 95.0635 25.0586C94.4182 23.944 94.0957 22.7019 94.0957 21.333C94.0958 19.9449 94.4183 18.7033 95.0635 17.6084C95.7088 16.4937 96.5894 15.6131 97.7041 14.9678C98.8384 14.3227 100.099 14.0001 101.487 14ZM114.204 14C115.515 14 116.669 14.3029 117.666 14.9092C118.683 15.5154 119.475 16.3465 120.042 17.4023C120.629 18.4583 120.922 19.6614 120.922 21.0107C120.922 21.1281 120.917 21.2479 120.907 21.3701L120.819 22.1182C120.8 22.2501 120.775 22.3895 120.746 22.5361H110.243C110.331 22.9027 110.458 23.245 110.626 23.5625C110.978 24.2274 111.477 24.7456 112.122 25.1172C112.767 25.4691 113.511 25.6455 114.352 25.6455C115.075 25.6455 115.74 25.5179 116.346 25.2637C116.972 25.0094 117.5 24.6383 117.93 24.1494L119.983 26.2324C119.299 27.0341 118.467 27.6401 117.489 28.0508C116.512 28.4613 115.476 28.6669 114.381 28.667C112.973 28.667 111.702 28.3533 110.567 27.7275C109.453 27.0822 108.563 26.2026 107.897 25.0879C107.252 23.9733 106.93 22.7213 106.93 21.333C106.93 19.9449 107.252 18.7033 107.897 17.6084C108.543 16.4937 109.414 15.6131 110.509 14.9678C111.623 14.3226 112.855 14 114.204 14ZM43.2266 28.373H40V14.293H43.2266V28.373ZM53.0938 14C54.1497 14 55.0888 14.2737 55.9102 14.8213C56.7314 15.3493 57.3764 16.044 57.8457 16.9043C58.315 17.7451 58.5498 18.625 58.5498 19.5439V28.373H55.3232V20.248C55.3232 19.3095 55.0202 18.5369 54.4141 17.9307C53.8274 17.3245 53.0645 17.0215 52.126 17.0215C51.5004 17.0215 50.9429 17.158 50.4541 17.4316C49.9652 17.7054 49.5833 18.0873 49.3096 18.5762C49.0359 19.065 48.8994 19.6224 48.8994 20.248V28.373H45.6729V14.293H48.8994V15.8867C49.2847 15.4241 49.743 15.0388 50.2773 14.7334C51.1183 14.2445 52.0573 14 53.0938 14ZM66.4072 23.2979L70.2764 14.293H73.708L67.2842 28.373H65.4072L58.9834 14.293H62.5615L66.4072 23.2979ZM92.5596 28.373H89.333V14.293H92.5596V28.373ZM80.4014 17.1094C79.6191 17.1094 78.9155 17.2955 78.29 17.667C77.6836 18.019 77.2045 18.508 76.8525 19.1338C76.5197 19.7594 76.3536 20.4826 76.3535 21.3037C76.3535 22.125 76.5196 22.8586 76.8525 23.5039C77.2045 24.1492 77.6836 24.6577 78.29 25.0293C78.9154 25.3811 79.6191 25.5576 80.4014 25.5576C81.2029 25.5576 81.9072 25.3813 82.5137 25.0293C83.1392 24.6577 83.6183 24.1492 83.9512 23.5039C84.3031 22.8586 84.4785 22.125 84.4785 21.3037C84.4785 20.4827 84.303 19.7594 83.9512 19.1338C83.5992 18.5081 83.1193 18.019 82.5137 17.667C81.9072 17.2954 81.2029 17.1094 80.4014 17.1094ZM114.146 16.9629C113.325 16.9629 112.611 17.1385 112.005 17.4902C111.399 17.8422 110.93 18.3412 110.597 18.9863C110.449 19.2643 110.336 19.5683 110.254 19.8965H117.744C117.66 19.4819 117.536 19.1099 117.372 18.7812C117.079 18.1947 116.659 17.7445 116.111 17.4316C115.583 17.1187 114.928 16.9629 114.146 16.9629Z" fill="white"/>
  <path d="M11.5333 38.9799L21.7914 41.6547L2 47V10.9213L11.5333 8.34675V38.9799ZM31.3333 39.0787L21.8 41.6525V10.7L11.5362 8.34531L31.3333 3V39.0787Z" fill="white"/>
</svg>